HIERARCHY
ROOT Hips
{
	OFFSET 0.000000 97.167313 0.000000
	CHANNELS 6 Xposition Yposition Zposition Xrotation Yrotation Zrotation
	JOINT Spine
	{
		OFFSET 0.000000 13.784798 0.064400
		CHANNELS 3 Xrotation Yrotation Zrotation
		JOINT Spine1
		{
			OFFSET 0.000000 12.037903 0.404700
			CHANNELS 3 Xrotation Yrotation Zrotation
			JOINT Spine2
			{
				OFFSET 0.000000 17.795601 0.420200
				CHANNELS 3 Xrotation Yrotation Zrotation
				JOINT Neck
				{
					OFFSET 0.000000 39.131302 11.954600
					CHANNELS 3 Xrotation Yrotation Zrotation
					JOINT Head
					{
						OFFSET 0.000000 14.456192 15.627699
						CHANNELS 3 Xrotation Yrotation Zrotation
						JOINT HeadTop_End
						{
							OFFSET 0.000000 15.703506 7.603401
							CHANNELS 3 Xrotation Yrotation Zrotation
							End Site
							{
								OFFSET 0.000000 17.447403 0.000000
							}
						}
					}
				}
				JOINT LeftShoulder
				{
					OFFSET 17.399500 24.608795 1.168800
					CHANNELS 3 Xrotation Yrotation Zrotation
					JOINT LeftArm
					{
						OFFSET 18.980635 5.765305 1.818600
						CHANNELS 3 Xrotation Yrotation Zrotation
						JOINT LeftForeArm
						{
							OFFSET 49.290169 0.000000 0.000000
							CHANNELS 3 Xrotation Yrotation Zrotation
							JOINT LeftHand
							{
								OFFSET 31.562012 0.000000 0.000000
								CHANNELS 3 Xrotation Yrotation Zrotation
								JOINT LeftHandThumb1
								{
									OFFSET 6.133995 -4.388519 7.076070
									CHANNELS 3 Xrotation Yrotation Zrotation
									JOINT LeftHandThumb2
									{
										OFFSET 6.037666 -3.485840 3.485847
										CHANNELS 3 Xrotation Yrotation Zrotation
										JOINT LeftHandThumb3
										{
											OFFSET 6.496506 -3.750763 3.750761
											CHANNELS 3 Xrotation Yrotation Zrotation
											JOINT LeftHandThumb4
											{
												OFFSET 5.616882 -3.242905 3.242910
												CHANNELS 3 Xrotation Yrotation Zrotation
												End Site
												{
													OFFSET -1.254608 7.132141 0.375429
												}
											}
										}
									}
								}
								JOINT LeftHandPinky1
								{
									OFFSET 18.920792 -0.453171 -11.426712
									CHANNELS 3 Xrotation Yrotation Zrotation
									JOINT LeftHandPinky2
									{
										OFFSET 4.919586 0.000000 0.000000
										CHANNELS 3 Xrotation Yrotation Zrotation
										JOINT LeftHandPinky3
										{
											OFFSET 5.233047 0.000000 0.000000
											CHANNELS 3 Xrotation Yrotation Zrotation
											JOINT LeftHandPinky4
											{
												OFFSET 5.571716 0.000000 0.000000
												CHANNELS 3 Xrotation Yrotation Zrotation
												End Site
												{
													OFFSET -3.459808 4.342407 -0.466164
												}
											}
										}
									}
								}
								JOINT LeftHandRing1
								{
									OFFSET 22.726120 -0.094986 -6.500475
									CHANNELS 3 Xrotation Yrotation Zrotation
									JOINT LeftHandRing2
									{
										OFFSET 6.408615 0.000000 0.000000
										CHANNELS 3 Xrotation Yrotation Zrotation
										JOINT LeftHandRing3
										{
											OFFSET 6.150223 0.000000 0.000000
											CHANNELS 3 Xrotation Yrotation Zrotation
											JOINT LeftHandRing4
											{
												OFFSET 6.145386 0.000000 0.000000
												CHANNELS 3 Xrotation Yrotation Zrotation
												End Site
												{
													OFFSET -3.671402 4.923981 -0.202372
												}
											}
										}
									}
								}
								JOINT LeftHandMiddle1
								{
									OFFSET 23.373947 0.000000 0.000001
									CHANNELS 3 Xrotation Yrotation Zrotation
									JOINT LeftHandMiddle2
									{
										OFFSET 6.996567 0.000000 0.000000
										CHANNELS 3 Xrotation Yrotation Zrotation
										JOINT LeftHandMiddle3
										{
											OFFSET 7.015945 0.000000 0.000000
											CHANNELS 3 Xrotation Yrotation Zrotation
											JOINT LeftHandMiddle4
											{
												OFFSET 7.721573 0.000000 0.000000
												CHANNELS 3 Xrotation Yrotation Zrotation
												End Site
												{
													OFFSET -4.651108 6.158463 0.251582
												}
											}
										}
									}
								}
								JOINT LeftHandIndex1
								{
									OFFSET 21.310577 -0.490082 6.209344
									CHANNELS 3 Xrotation Yrotation Zrotation
									JOINT LeftHandIndex2
									{
										OFFSET 7.536453 0.000000 0.000000
										CHANNELS 3 Xrotation Yrotation Zrotation
										JOINT LeftHandIndex3
										{
											OFFSET 7.512344 0.000000 0.000000
											CHANNELS 3 Xrotation Yrotation Zrotation
											JOINT LeftHandIndex4
											{
												OFFSET 10.212402 0.000000 0.000001
												CHANNELS 3 Xrotation Yrotation Zrotation
												End Site
												{
													OFFSET -5.180801 8.690506 1.388433
												}
											}
										}
									}
								}
							}
						}
					}
				}
				JOINT RightShoulder
				{
					OFFSET -17.399500 24.608795 1.168800
					CHANNELS 3 Xrotation Yrotation Zrotation
					JOINT RightArm
					{
						OFFSET -18.980635 5.765305 1.818600
						CHANNELS 3 Xrotation Yrotation Zrotation
						JOINT RightForeArm
						{
							OFFSET -49.290169 0.000000 0.000000
							CHANNELS 3 Xrotation Yrotation Zrotation
							JOINT RightHand
							{
								OFFSET -31.562012 0.000000 0.000000
								CHANNELS 3 Xrotation Yrotation Zrotation
								JOINT RightHandThumb1
								{
									OFFSET -6.133995 -4.388519 7.076070
									CHANNELS 3 Xrotation Yrotation Zrotation
									JOINT RightHandThumb2
									{
										OFFSET -6.037666 -3.485840 3.485847
										CHANNELS 3 Xrotation Yrotation Zrotation
										JOINT RightHandThumb3
										{
											OFFSET -6.496506 -3.750763 3.750761
											CHANNELS 3 Xrotation Yrotation Zrotation
											JOINT RightHandThumb4
											{
												OFFSET -5.616882 -3.242905 3.242910
												CHANNELS 3 Xrotation Yrotation Zrotation
												End Site
												{
													OFFSET 1.254608 7.132141 0.375429
												}
											}
										}
									}
								}
								JOINT RightHandIndex1
								{
									OFFSET -21.310577 -0.490082 6.209344
									CHANNELS 3 Xrotation Yrotation Zrotation
									JOINT RightHandIndex2
									{
										OFFSET -7.536453 0.000000 0.000000
										CHANNELS 3 Xrotation Yrotation Zrotation
										JOINT RightHandIndex3
										{
											OFFSET -7.512344 0.000000 0.000000
											CHANNELS 3 Xrotation Yrotation Zrotation
											JOINT RightHandIndex4
											{
												OFFSET -10.212402 0.000000 0.000001
												CHANNELS 3 Xrotation Yrotation Zrotation
												End Site
												{
													OFFSET 5.180801 8.690506 1.388433
												}
											}
										}
									}
								}
								JOINT RightHandMiddle1
								{
									OFFSET -23.373947 0.000000 0.000001
									CHANNELS 3 Xrotation Yrotation Zrotation
									JOINT RightHandMiddle2
									{
										OFFSET -6.996567 0.000000 0.000000
										CHANNELS 3 Xrotation Yrotation Zrotation
										JOINT RightHandMiddle3
										{
											OFFSET -7.015945 0.000000 0.000000
											CHANNELS 3 Xrotation Yrotation Zrotation
											JOINT RightHandMiddle4
											{
												OFFSET -7.721573 0.000000 0.000000
												CHANNELS 3 Xrotation Yrotation Zrotation
												End Site
												{
													OFFSET 4.651108 6.158463 0.251582
												}
											}
										}
									}
								}
								JOINT RightHandRing1
								{
									OFFSET -22.726120 -0.094986 -6.500475
									CHANNELS 3 Xrotation Yrotation Zrotation
									JOINT RightHandRing2
									{
										OFFSET -6.408615 0.000000 0.000000
										CHANNELS 3 Xrotation Yrotation Zrotation
										JOINT RightHandRing3
										{
											OFFSET -6.150223 0.000000 0.000000
											CHANNELS 3 Xrotation Yrotation Zrotation
											JOINT RightHandRing4
											{
												OFFSET -6.145386 0.000000 0.000000
												CHANNELS 3 Xrotation Yrotation Zrotation
												End Site
												{
													OFFSET 3.671402 4.923981 -0.202372
												}
											}
										}
									}
								}
								JOINT RightHandPinky1
								{
									OFFSET -18.920792 -0.453171 -11.426712
									CHANNELS 3 Xrotation Yrotation Zrotation
									JOINT RightHandPinky2
									{
										OFFSET -4.919586 0.000000 0.000000
										CHANNELS 3 Xrotation Yrotation Zrotation
										JOINT RightHandPinky3
										{
											OFFSET -5.233047 0.000000 0.000000
											CHANNELS 3 Xrotation Yrotation Zrotation
											JOINT RightHandPinky4
											{
												OFFSET -5.571716 0.000000 0.000000
												CHANNELS 3 Xrotation Yrotation Zrotation
												End Site
												{
													OFFSET 3.459808 4.342407 -0.466164
												}
											}
										}
									}
								}
							}
						}
					}
				}
			}
		}
	}
	JOINT LeftUpLeg
	{
		OFFSET 19.899099 -7.885101 -3.429500
		CHANNELS 3 Xrotation Yrotation Zrotation
		JOINT LeftLeg
		{
			OFFSET 1.745560 -36.997807 10.304700
			CHANNELS 3 Xrotation Yrotation Zrotation
			JOINT LeftFoot
			{
				OFFSET -1.745558 -29.803308 -13.615400
				CHANNELS 3 Xrotation Yrotation Zrotation
				JOINT LeftToeBase
				{
					OFFSET 1.181900 -18.539904 15.226099
					CHANNELS 3 Xrotation Yrotation Zrotation
					JOINT LeftToe_End
					{
						OFFSET -0.863701 1.402801 16.534700
						CHANNELS 3 Xrotation Yrotation Zrotation
						End Site
						{
							OFFSET 0.000000 16.616566 0.000000
						}
					}
				}
			}
		}
	}
	JOINT RightUpLeg
	{
		OFFSET -19.899099 -7.885101 -3.429500
		CHANNELS 3 Xrotation Yrotation Zrotation
		JOINT RightLeg
		{
			OFFSET -1.745560 -36.997807 10.304700
			CHANNELS 3 Xrotation Yrotation Zrotation
			JOINT RightFoot
			{
				OFFSET 1.745558 -29.803308 -13.615400
				CHANNELS 3 Xrotation Yrotation Zrotation
				JOINT RightToeBase
				{
					OFFSET -1.181900 -18.539904 15.226099
					CHANNELS 3 Xrotation Yrotation Zrotation
					JOINT RightToe_End
					{
						OFFSET 0.863701 1.402801 16.534700
						CHANNELS 3 Xrotation Yrotation Zrotation
						End Site
						{
							OFFSET 0.000000 16.616566 0.000000
						}
					}
				}
			}
		}
	}
}
MOTION
Frames: 4
Frame Time: 0.033333
0.296383 92.165207 3.126984 -6.106975 -2.884853 -2.530863 7.936233 4.575726 0.742914 15.496309 1.311605 -0.221524 15.502945 1.293491 -0.281789 2.699644 -0.819501 -0.011561 19.076356 -4.983547 4.330985 -0.000002 0.000000 -0.000000 0.897184 -16.388020 -20.711772 -22.332822 -15.700911 -54.857689 -0.000001 -5.018196 -0.000027 -4.971986 -1.341839 -6.582555 -0.266445 4.548707 10.792700 14.076446 6.218205 10.792522 -1.567154 -26.618098 15.515465 0.000003 -0.000004 -0.000002 0.751358 5.177102 -23.678802 0.713246 2.803364 -28.544143 0.183699 1.456987 -14.370933 -0.000000 -0.000000 -0.000004 1.739689 8.580061 -17.229214 1.308816 3.692078 -39.026980 0.356737 2.014868 -20.078355 -0.000001 -0.000001 0.000005 1.303309 7.387708 -16.322354 0.454497 2.264314 -22.696266 0.408145 2.150240 -21.493161 -0.000000 -0.000002 0.000008 0.202858 3.648016 -14.856876 0.530655 2.438294 -24.552493 0.191601 1.487491 -14.678811 -0.000000 0.000001 0.000001 -1.169716 14.504865 23.877583 -21.479299 8.528829 53.836128 0.000004 4.461674 -0.000019 -3.100601 1.163717 1.690493 -6.439870 1.666964 -14.227989 17.750581 -20.831092 7.630756 -18.169927 14.322154 -9.874671 -0.000001 -0.000001 0.000002 -1.312962 3.015356 14.433288 0.617907 -2.320010 29.823792 0.424781 -1.945004 24.637426 -0.000002 -0.000003 -0.000001 -1.183819 0.855431 17.866358 1.041086 -2.936772 39.031946 0.323787 -1.707806 21.469472 -0.000001 -0.000000 -0.000006 -0.099492 -2.403346 15.770229 1.477867 -3.404869 46.915910 0.279699 -1.591190 19.937812 -0.000000 0.000001 -0.000003 -12.802823 -11.016915 13.058978 1.001215 -2.886954 38.247075 0.242743 -1.485410 18.561384 -0.000001 -0.000000 0.000002 -7.291857 8.871810 7.936717 22.552412 -9.812877 3.540787 -11.460953 -4.691552 -5.393916 0.078565 0.000009 0.000000 0.000000 -0.000001 -0.000000 -10.150330 -5.010392 -0.575078 18.569980 9.888619 -2.544153 -3.105262 11.555590 -0.197324 0.389990 -0.003915 0.754498 -0.000000 0.000000 0.000000 
0.289198 92.163399 3.143943 -6.106765 -2.870797 -2.529358 7.948607 4.578774 0.740441 15.496116 1.312281 -0.221496 15.502771 1.294097 -0.281850 2.699757 -0.820184 -0.010293 19.084049 -4.986169 4.335732 0.000001 0.000000 -0.000000 0.945698 -16.237238 -20.695627 -22.326529 -15.692126 -54.890829 0.000006 -5.018629 -0.000010 -4.983859 -1.342172 -6.602641 -0.266445 4.548709 10.792700 14.056225 6.158182 10.815912 -1.561099 -26.604716 15.474116 -0.000003 -0.000000 -0.000005 0.753462 5.180884 -23.729757 0.705996 2.790001 -28.395408 0.183624 1.456700 -14.368131 0.000000 0.000000 -0.000002 1.755656 8.604479 -17.324457 1.309130 3.692469 -39.031925 0.356456 2.014106 -20.070308 -0.000000 -0.000001 0.000007 1.302574 7.378263 -16.355322 0.454913 2.265312 -22.706841 0.408339 2.150723 -21.498259 0.000001 0.000001 0.000006 0.200837 3.635436 -14.690630 0.532255 2.441782 -24.590081 0.189817 1.480685 -14.609911 -0.000000 0.000002 -0.000003 -1.170310 14.501496 23.885125 -21.456848 8.531103 53.848235 0.000001 4.472742 0.000014 -3.162469 1.213322 1.710680 -6.439871 1.666963 -14.227994 17.771601 -20.863077 7.652841 -18.158408 14.294786 -9.848708 0.000001 0.000000 0.000002 -1.315450 3.014435 14.454308 0.613473 -2.312281 29.714134 0.425036 -1.945544 24.644948 -0.000001 0.000001 -0.000004 -1.185367 0.856678 17.879584 1.039916 -2.935326 39.009051 0.324356 -1.709258 21.488571 0.000002 0.000001 -0.000006 -0.105703 -2.385666 15.826868 1.475256 -3.402429 46.871920 0.280055 -1.592180 19.950691 -0.000001 -0.000000 -0.000003 -12.804233 -11.015020 13.053299 1.000786 -2.886424 38.238667 0.242624 -1.485024 18.556323 -0.000000 -0.000000 0.000002 -7.294424 8.870204 7.951670 22.555943 -9.812819 3.540864 -11.475892 -4.710939 -5.394986 0.068266 -0.000010 -0.000001 -0.000000 -0.000001 -0.000000 -10.145328 -5.009479 -0.583945 18.575657 9.868036 -2.540986 -3.118008 11.553948 -0.191232 0.389632 -0.003910 0.753685 -0.000000 0.000000 0.000000 
0.280343 92.157188 3.165883 -6.099358 -2.862006 -2.525038 7.951931 4.584213 0.735233 15.495736 1.311686 -0.221572 15.502373 1.293584 -0.281979 2.699529 -0.819509 -0.011522 19.094444 -4.972409 4.324003 -0.000002 -0.000000 0.000000 0.990516 -16.083072 -20.679596 -22.304130 -15.705610 -54.932278 0.000004 -5.016803 0.000003 -5.017453 -1.342912 -6.647833 -0.266442 4.548713 10.792699 14.087421 6.216753 10.780711 -1.476197 -26.551184 15.314783 0.000001 0.000001 -0.000001 0.754217 5.185413 -23.635660 0.703863 2.786070 -28.351729 0.183543 1.456373 -14.364829 -0.000001 -0.000000 -0.000000 1.755575 8.629823 -17.229425 1.309335 3.692715 -39.035043 0.356174 2.013336 -20.062386 -0.000000 0.000000 0.000003 1.295239 7.373801 -16.260946 0.455006 2.265529 -22.709194 0.408513 2.151167 -21.502907 0.000002 -0.000000 0.000004 0.195053 3.610881 -14.442116 0.530350 2.437625 -24.545424 0.190084 1.481671 -14.619923 -0.000000 0.000003 0.000002 -1.167593 14.498130 23.884729 -21.449323 8.528169 53.859723 -0.000002 4.470819 0.000013 -3.238324 1.247951 1.727666 -6.439872 1.666965 -14.227995 17.826802 -20.946578 7.710778 -18.139328 14.218977 -9.778468 0.000001 0.000000 -0.000001 -1.317075 3.009186 14.482094 0.623370 -2.329528 29.958692 0.425466 -1.946481 24.657534 -0.000000 0.000000 0.000001 -1.186989 0.858908 17.890103 1.040358 -2.935875 39.017766 0.324874 -1.710570 21.506015 -0.000000 0.000002 -0.000001 -0.110905 -2.369966 15.861745 1.474361 -3.401600 46.856887 0.280396 -1.593105 19.962809 0.000000 0.000002 -0.000005 -12.798519 -11.022221 13.074464 1.000625 -2.886215 38.235396 0.242259 -1.483949 18.542440 -0.000002 0.000000 -0.000003 -7.301108 8.869703 7.947050 22.565311 -9.817998 3.542817 -11.495674 -4.714372 -5.396830 0.051249 0.000001 -0.000001 -0.000000 0.000000 0.000000 -10.149711 -5.008100 -0.590056 18.606417 9.861459 -2.540858 -3.151868 11.558972 -0.201537 0.382644 -0.003778 0.740469 0.000000 0.000001 0.000000 
0.273291 92.149345 3.191949 -6.088310 -2.849367 -2.521270 7.944577 4.584677 0.744024 15.496294 1.310058 -0.221638 15.502911 1.292116 -0.281632 2.698912 -0.817880 -0.017166 19.099027 -4.948326 4.292815 0.000002 -0.000000 0.000000 1.033526 -15.926077 -20.663696 -22.270085 -15.735296 -54.979348 0.000001 -5.012018 0.000016 -4.991775 -1.317146 -6.759571 -0.266442 4.548712 10.792703 14.199616 6.459344 10.650875 -1.318625 -26.469539 15.087888 0.000001 0.000002 0.000001 0.755427 5.190790 -23.501924 0.704992 2.788153 -28.374850 0.183780 1.457318 -14.374335 0.000001 -0.000001 -0.000004 1.749289 8.657814 -17.054690 1.309417 3.692824 -39.036372 0.356455 2.014115 -20.070373 -0.000001 0.000002 0.000003 1.287740 7.379073 -16.118743 0.455015 2.265549 -22.709385 0.408826 2.151972 -21.511240 0.000003 0.000000 0.000008 0.190244 3.594781 -14.336092 0.528971 2.434613 -24.512965 0.191456 1.486938 -14.673166 0.000002 0.000003 0.000002 -1.157473 14.472187 23.865265 -21.459259 8.521626 53.880466 0.000007 4.462847 -0.000005 -3.302956 1.268665 1.745681 -6.439871 1.666963 -14.227990 17.888974 -21.040230 7.776026 -18.112302 14.111763 -9.684013 0.000001 0.000000 0.000004 -1.317807 3.001710 14.516003 0.637631 -2.354070 30.307646 0.426019 -1.947685 24.673864 0.000001 -0.000001 -0.000002 -1.188122 0.856188 17.912910 1.040923 -2.936568 39.028722 0.325388 -1.711858 21.523007 0.000000 -0.000003 -0.000002 -0.112275 -2.366155 15.874927 1.475283 -3.402462 46.872457 0.280893 -1.594458 19.980498 -0.000000 -0.000000 -0.000002 -12.792832 -11.032355 13.106795 1.000843 -2.886488 38.239716 0.242139 -1.483622 18.538155 -0.000000 -0.000002 -0.000001 -7.296388 8.870111 7.939599 22.575099 -9.810959 3.544976 -11.512289 -4.708224 -5.407305 0.045181 0.000000 0.000001 0.000000 -0.000001 -0.000000 -10.150811 -5.009904 -0.593560 18.647166 9.835455 -2.541586 -3.201328 11.568408 -0.220752 0.370854 -0.003543 0.717964 0.000000 -0.000000 -0.000000 
